{"glyphs":{":":{"x_min":0,"x_max":272,"ha":272,"o":"m 82 347 q 80 350 79 353 q 78 356 78 360 q 78 363 79 366 q 81 370 83 372 l 124 412 q 127 416 130 417 q 133 419 136 419 q 138 419 141 417 q 144 414 147 410 l 178 371 q 180 369 181 366 q 182 364 182 362 q 182 359 181 356 q 179 353 177 351 l 135 308 q 131 305 128 302 q 125 300 123 300 q 120 300 117 302 q 114 305 111 309 z m 50 47 q 48 50 47 53 q 46 56 46 59 q 46 63 47 67 q 48 70 50 72 l 91 111 q 94 114 98 116 q 101 118 104 118 q 106 118 109 115 q 112 113 115 109 l 145 70 q 147 67 148 65 q 149 63 149 61 q 149 58 148 55 q 146 53 144 50 l 103 7 q 100 4 96 2 q 93 0 91 0 q 88 0 84 2 q 81 4 79 8 z"},"$":{"x_min":0,"x_max":495,"ha":495,"o":"m 212 16 q 282 23 326 68 q 369 113 369 177 q 369 233 340 272 q 310 311 250 333 z m 226 425 l 256 677 q 195 676 157 643 q 118 609 118 558 q 118 518 143 487 q 167 456 226 425 z m 163 -108 l 175 -12 q 113 -5 64 33 q 14 72 14 106 q 14 125 26 154 q 38 183 48 183 q 58 183 63 154 q 69 125 77 107 q 92 70 118 48 q 145 26 178 22 l 217 346 q 141 383 104 428 q 68 473 68 530 q 68 602 122 653 q 176 705 254 705 l 260 705 l 267 767 l 302 767 l 294 704 q 352 691 394 658 q 437 624 437 597 q 437 583 425 566 q 413 550 404 550 q 393 550 383 580 q 377 598 373 607 q 360 631 341 646 q 321 662 290 670 l 259 409 q 356 363 394 318 q 431 272 431 203 q 431 114 367 49 q 303 -16 211 -16 l 209 -16 l 198 -108 z"},"?":{"x_min":0,"x_max":365,"ha":365,"o":"m 80 47 q 78 50 77 53 q 76 55 76 59 q 76 63 77 67 q 78 70 80 72 l 122 111 q 125 114 128 116 q 131 118 134 118 q 136 118 139 115 q 143 113 145 109 l 175 70 q 177 67 178 65 q 179 63 179 61 q 179 57 178 54 q 177 52 175 50 l 133 7 q 130 4 126 2 q 123 0 121 0 q 118 0 115 2 q 111 4 109 8 z m 139 183 q 131 183 125 199 q 119 216 119 240 q 119 262 131 292 q 143 323 168 365 l 168 366 q 235 476 235 507 q 235 535 216 555 q 197 574 169 574 q 145 574 126 562 q 107 549 106 549 q 103 549 100 551 q 98 554 98 558 q 98 573 128 592 q 159 612 194 612 q 241 612 271 584 q 302 556 302 513 q 302 467 234 382 q 217 361 208 349 q 171 301 157 274 q 144 247 144 225 q 144 217 146 207 q 148 197 148 194 q 148 189 145 186 q 143 183 139 183 z"},"<":{"x_min":0,"x_max":833,"ha":833,"o":"m 704 554 l 704 501 l 205 298 l 704 96 l 704 43 l 129 278 l 129 318 z"},"'":{"x_min":0,"x_max":169,"ha":169,"o":"m 92 424 l 77 424 l 47 646 q 47 647 47 648 q 45 660 45 666 q 45 689 55 701 q 65 714 84 714 q 103 714 113 702 q 123 690 123 667 q 123 659 123 655 q 123 650 122 646 z"},"=":{"x_min":0,"x_max":833,"ha":833,"o":"m 124 231 l 709 231 l 709 183 l 124 183 z m 124 413 l 709 413 l 709 365 l 124 365 z"},"a":{"x_min":0,"x_max":454,"ha":454,"o":"m 269 134 l 312 341 q 314 350 315 356 q 316 363 316 368 q 316 385 301 395 q 287 404 259 404 q 231 404 201 385 q 170 367 146 334 q 112 288 91 229 q 70 170 70 120 q 70 80 86 61 q 103 41 137 41 q 170 41 201 63 q 231 84 269 134 z m 276 102 q 227 44 182 16 q 136 -11 89 -11 q 50 -11 28 18 q 5 47 5 97 q 5 153 32 218 q 59 284 104 335 q 144 380 183 403 q 222 426 260 426 q 278 426 303 419 q 328 412 336 412 q 356 412 372 438 q 389 465 396 465 q 400 465 402 462 q 404 459 404 454 q 404 453 394 420 q 385 388 378 353 l 343 167 q 340 150 338 132 q 336 114 336 98 q 336 79 343 67 q 350 55 361 55 q 376 55 396 84 q 415 114 421 114 q 424 114 427 111 q 429 108 429 103 q 429 98 422 82 q 415 66 404 50 q 380 15 365 3 q 350 -8 331 -8 q 303 -8 289 16 q 276 40 276 91 z"},"L":{"x_min":0,"x_max":551,"ha":551,"o":"m 137 542 q 139 562 141 578 q 142 595 142 604 q 142 629 130 646 q 118 662 95 668 q 89 669 80 671 q 53 675 53 687 q 53 693 58 697 q 62 700 70 700 q 71 700 80 699 q 131 694 183 694 q 220 694 263 699 q 275 700 278 700 q 285 700 288 697 q 291 694 291 688 q 291 677 270 670 l 269 670 q 263 669 260 668 q 257 667 254 666 q 236 659 228 643 q 219 627 214 585 l 159 97 q 158 87 157 79 q 156 70 156 64 q 156 46 169 40 q 183 34 227 34 q 316 34 370 43 q 424 52 462 73 q 490 88 508 113 q 526 137 532 137 q 538 137 540 133 q 543 129 543 123 q 543 114 530 87 q 517 60 500 38 q 479 11 456 0 q 434 -11 395 -11 q 374 -11 287 -4 q 199 3 133 3 q 80 3 29 -2 q 21 -3 20 -3 q 12 -3 8 0 q 5 3 5 10 q 5 20 29 27 l 30 27 q 40 29 44 31 q 49 32 54 34 q 68 40 76 55 q 83 70 88 111 z"},"3":{"x_min":0,"x_max":495,"ha":495,"o":"m 252 394 q 327 388 371 352 q 414 315 414 259 q 414 204 385 152 q 357 100 304 58 q 258 22 207 2 q 155 -18 110 -18 q 64 -18 47 -3 q 31 11 31 70 q 31 76 35 81 q 39 86 43 86 q 47 86 81 57 q 115 28 152 28 q 227 28 286 87 q 345 146 345 225 q 345 284 308 316 q 271 348 203 348 q 188 348 168 345 q 148 342 144 342 q 137 342 131 344 q 126 347 126 350 q 126 358 170 381 q 215 404 250 431 q 292 462 315 497 q 337 532 337 567 q 337 612 309 636 q 282 660 229 660 q 183 660 141 633 q 128 625 125 625 q 120 625 116 628 q 113 630 113 634 q 113 655 162 678 q 210 700 264 700 q 326 700 363 669 q 401 639 401 590 q 401 550 373 511 q 345 472 252 394 z"},";":{"x_min":0,"x_max":272,"ha":272,"o":"m 82 347 q 80 350 79 353 q 78 356 78 360 q 78 363 79 366 q 81 370 83 372 l 124 412 q 127 416 130 417 q 133 419 136 419 q 138 419 141 417 q 144 414 147 410 l 178 371 q 180 369 181 366 q 182 364 182 362 q 182 359 181 356 q 179 353 177 351 l 135 308 q 131 305 128 302 q 125 300 123 300 q 120 300 117 302 q 114 305 111 309 z m 93 -11 q 93 17 70 40 q 47 63 47 65 q 47 76 67 100 q 88 125 96 125 q 111 125 130 96 q 150 67 150 36 q 150 -23 110 -81 q 71 -138 46 -138 q 41 -138 38 -136 q 35 -133 35 -129 q 35 -126 64 -91 q 93 -55 93 -11 z"},"J":{"x_min":0,"x_max":312,"ha":312,"o":"m 152 576 q 154 589 154 597 q 155 605 155 611 q 155 635 145 648 q 135 662 111 669 q 107 670 102 671 q 97 672 89 673 q 72 675 66 679 q 61 683 61 690 q 61 695 66 698 q 71 702 78 702 q 80 702 88 701 q 135 694 183 694 q 214 694 248 698 q 282 702 285 702 q 290 702 294 698 q 298 695 298 690 q 298 680 280 675 q 263 669 256 664 q 244 655 237 639 q 230 622 227 591 l 183 207 q 171 99 153 45 q 135 -9 103 -47 q 75 -81 34 -102 q -6 -124 -38 -124 q -62 -124 -74 -116 q -87 -109 -87 -94 q -87 -68 -78 -46 q -68 -24 -57 -24 q -51 -24 -34 -49 q -18 -73 6 -73 q 45 -73 67 -24 q 89 25 105 159 z"},"V":{"x_min":0,"x_max":659,"ha":659,"o":"m 125 496 q 106 563 91 605 q 76 646 64 659 q 57 667 37 673 q 17 679 17 690 q 17 695 21 699 q 24 703 29 703 q 31 703 40 702 q 79 698 115 698 q 142 698 171 701 q 200 703 202 703 q 211 703 216 700 q 220 697 220 691 q 220 683 192 673 q 164 663 164 636 q 164 622 170 591 q 177 561 188 520 l 292 150 q 299 125 303 118 q 307 111 312 111 q 319 111 328 124 q 337 137 365 191 l 437 334 q 500 460 535 540 q 570 620 570 638 q 570 655 563 663 q 556 670 536 675 q 532 676 524 677 q 502 680 502 693 q 502 698 507 700 q 511 703 519 703 q 523 703 526 703 q 529 703 533 702 q 537 702 544 701 q 577 698 600 698 q 615 698 638 701 q 645 702 648 702 q 651 703 654 703 q 657 703 662 703 q 670 703 675 699 q 680 695 680 688 q 680 680 665 673 q 650 665 646 662 q 627 646 590 571 l 587 564 l 412 210 q 366 118 324 51 q 282 -17 273 -17 q 261 -17 255 12 q 251 30 248 41 z"},"\"":{"x_min":0,"x_max":328,"ha":328,"o":"m 251 424 l 236 424 l 206 646 q 205 655 204 659 q 204 663 204 667 q 204 689 214 702 q 225 714 244 714 q 263 714 273 701 q 283 689 283 666 q 283 660 281 648 q 281 647 281 646 z m 92 424 l 77 424 l 47 646 q 47 647 47 648 q 45 660 45 666 q 45 689 55 701 q 65 714 84 714 q 103 714 114 702 q 124 689 124 667 q 124 662 123 649 q 122 647 122 646 z"},"7":{"x_min":0,"x_max":495,"ha":495,"o":"m 418 594 q 421 599 423 604 q 425 609 425 610 q 425 614 410 616 q 396 618 361 618 l 196 618 q 167 618 153 613 q 139 608 131 597 q 124 587 118 570 q 111 553 102 553 q 97 553 94 557 q 91 560 91 565 q 91 570 96 589 q 101 609 114 652 q 115 654 116 659 q 125 691 159 691 q 167 691 237 688 q 307 685 368 685 q 412 685 431 687 q 450 688 460 693 q 466 696 473 702 q 480 709 484 709 q 490 709 493 705 q 496 701 496 693 q 496 683 480 653 q 473 640 469 632 l 198 111 l 197 109 q 153 24 149 -13 q 148 -15 148 -17 q 148 -20 148 -23 q 145 -51 101 -51 q 78 -51 68 -46 q 59 -41 59 -28 q 59 -15 70 8 q 81 32 112 84 z"},"S":{"x_min":0,"x_max":495,"ha":495,"o":"m 363 136 q 363 194 265 292 q 237 320 223 335 q 135 428 109 473 q 83 518 83 562 q 83 625 129 667 q 175 709 244 709 q 282 709 329 694 q 376 678 384 678 q 390 678 399 683 q 409 688 413 688 q 422 688 424 656 q 424 651 424 648 q 425 615 429 580 q 432 544 432 542 q 432 535 429 531 q 426 526 422 526 q 413 526 405 551 q 396 576 387 592 q 364 632 324 657 q 283 683 242 683 q 199 683 172 657 q 146 632 146 590 q 146 519 267 401 q 279 390 285 384 q 374 297 400 252 q 426 208 426 162 q 426 80 361 32 q 296 -16 184 -16 q 131 -16 97 -8 q 62 0 54 14 q 42 33 32 69 q 22 105 22 122 q 22 129 26 135 q 29 140 34 140 q 45 140 56 116 q 66 93 76 81 q 103 48 138 32 q 174 16 220 16 q 287 16 325 48 q 363 81 363 136 z"},"}":{"x_min":0,"x_max":500,"ha":500,"o":"m 87 740 l 92 740 q 197 740 237 704 q 276 668 276 571 l 276 465 q 276 388 304 360 q 333 332 414 324 l 414 297 q 333 291 305 261 q 276 232 276 156 l 276 50 q 276 -47 237 -83 q 197 -119 92 -119 l 87 -119 l 87 -95 q 160 -94 186 -68 q 212 -42 212 33 l 212 104 q 212 214 242 255 q 273 295 356 310 q 273 325 242 365 q 212 406 212 516 l 212 587 q 212 663 186 689 q 160 715 87 716 z"},"Z":{"x_min":0,"x_max":549,"ha":549,"o":"m 107 72 l 242 71 l 338 71 q 425 71 451 77 q 477 84 477 100 q 477 113 457 117 q 451 118 448 119 q 436 122 429 131 q 422 139 422 152 q 422 168 434 179 q 446 191 462 191 q 483 191 496 173 q 510 156 510 128 q 510 74 462 35 q 414 -5 341 -5 q 330 -5 269 -2 q 208 1 159 1 q 101 1 45 -2 q 37 -3 35 -3 q 25 -3 20 0 q 15 3 15 9 q 15 15 36 43 q 58 70 71 90 l 434 633 q 426 632 418 632 q 410 632 393 632 q 356 632 294 636 q 231 641 206 641 q 146 641 110 613 q 73 584 73 540 q 73 513 93 501 q 112 489 112 483 q 112 476 106 470 q 101 465 94 465 q 74 465 59 486 q 44 506 44 537 q 44 610 100 662 q 156 714 243 714 q 284 714 354 707 q 423 700 451 700 q 470 700 488 703 q 505 706 506 706 q 511 706 516 703 q 520 699 520 695 q 520 688 487 638 l 483 632 q 481 629 478 625 q 475 621 469 612 z"},"x":{"x_min":0,"x_max":411,"ha":411,"o":"m 128 328 q 120 350 112 357 q 104 365 92 365 q 68 365 60 333 q 51 301 44 301 q 40 301 36 306 q 33 312 33 319 q 33 368 55 401 q 78 435 109 435 q 131 435 148 418 q 165 401 182 362 q 189 346 198 320 q 208 291 213 291 q 218 291 232 318 q 246 346 262 370 q 285 403 307 419 q 329 435 351 435 q 368 435 378 426 q 388 417 388 401 q 388 387 381 379 q 373 371 359 371 q 351 371 338 374 q 326 376 323 376 q 308 376 292 361 q 276 346 257 313 q 240 283 232 267 q 225 251 225 244 q 225 239 228 228 q 230 218 234 208 l 280 98 q 297 57 312 42 q 326 27 347 27 q 350 27 358 27 q 367 28 372 28 q 377 28 382 24 q 386 21 386 16 q 386 5 362 -3 q 338 -11 304 -11 q 271 -11 253 4 q 235 20 218 70 q 210 92 201 123 q 189 163 183 163 q 179 163 167 137 q 155 111 142 91 q 108 35 79 12 q 50 -11 17 -11 q 0 -11 -10 -2 q -19 8 -19 25 q -19 41 -10 49 q 0 58 16 58 q 21 58 34 54 q 48 50 55 50 q 69 50 85 66 q 101 82 128 125 q 153 167 162 185 q 170 202 170 211 q 170 217 168 226 q 166 234 162 243 z"},")":{"x_min":0,"x_max":370,"ha":370,"o":"m 92 714 q 103 714 124 686 q 145 657 169 609 q 206 537 222 469 q 239 400 239 322 q 239 229 206 136 q 174 44 109 -47 q 75 -94 41 -128 q 7 -162 -4 -162 q -9 -162 -12 -159 q -15 -155 -15 -150 q -15 -145 13 -112 q 42 -80 61 -49 q 108 25 136 134 q 164 243 164 355 q 164 433 155 495 q 146 558 129 603 q 117 636 98 667 q 79 698 79 701 q 79 707 83 710 q 86 714 92 714 z"},"&":{"x_min":0,"x_max":823,"ha":823,"o":"m 249 430 q 260 403 274 390 q 289 377 309 377 q 327 377 338 387 q 350 397 350 412 q 350 429 339 437 q 328 446 307 446 q 289 446 276 442 q 263 438 249 430 z m 207 445 q 204 458 202 471 q 200 485 200 499 q 200 585 261 646 q 322 707 408 707 q 458 707 489 683 q 519 660 519 621 q 519 593 499 572 q 479 551 456 551 q 446 551 440 553 q 435 556 435 560 q 435 565 442 578 q 449 591 449 603 q 449 626 431 640 q 414 654 384 654 q 324 654 280 605 q 235 556 235 493 q 235 487 236 479 q 237 470 240 459 q 257 468 275 473 q 292 477 313 477 q 353 477 376 460 q 399 443 399 414 q 399 382 377 362 q 354 341 320 341 q 285 341 258 360 q 231 379 217 415 q 176 396 152 354 q 128 312 128 260 q 128 163 198 93 q 268 24 366 24 q 458 24 531 87 q 603 150 603 229 q 603 272 578 300 q 552 328 515 328 q 480 328 456 305 q 432 282 432 249 q 432 226 443 212 q 453 198 470 198 q 484 198 495 208 q 506 218 509 218 q 514 218 518 214 q 521 210 521 204 q 521 190 503 178 q 485 165 463 165 q 431 165 407 194 q 384 223 384 266 q 384 311 416 343 q 448 376 527 409 q 669 469 718 510 q 767 552 767 602 q 767 637 747 659 q 728 681 697 681 q 673 681 656 666 q 639 650 639 631 q 639 611 666 602 q 693 593 693 584 q 693 565 681 553 q 669 540 652 540 q 626 540 611 560 q 595 579 595 612 q 595 649 626 678 q 657 707 699 707 q 746 707 777 673 q 808 640 808 589 q 808 521 755 464 q 703 408 596 362 q 626 346 641 318 q 656 291 656 251 q 656 142 556 62 q 457 -19 313 -19 q 200 -19 128 45 q 57 110 57 210 q 57 283 95 342 q 133 401 207 445 z"},"_":{"x_min":0,"x_max":500,"ha":500,"o":"m 0 -187 l 500 -187 l 500 -236 l 0 -236 z"},"v":{"x_min":0,"x_max":431,"ha":431,"o":"m 161 -9 q 143 -9 129 6 q 114 21 107 46 q 99 74 97 109 q 95 143 94 146 q 92 153 77 156 q 62 159 58 161 q 35 171 24 191 q 13 212 13 246 q 13 318 52 376 q 91 434 132 434 q 154 434 165 414 q 176 393 176 351 q 176 322 167 253 q 159 184 159 144 q 159 102 170 78 q 180 55 199 55 q 223 55 247 77 q 271 99 298 146 q 323 189 335 230 q 347 271 347 311 q 347 338 337 369 q 326 399 326 403 q 326 417 334 425 q 341 433 356 433 q 376 433 385 419 q 393 405 393 370 q 393 305 368 232 q 343 159 299 98 q 264 49 226 20 q 188 -9 161 -9 z m 40 242 q 40 216 50 200 q 61 184 77 184 q 96 184 104 214 q 112 245 112 316 q 112 334 108 344 q 104 354 96 354 q 78 354 59 318 q 40 282 40 242 z"},"O":{"x_min":0,"x_max":778,"ha":778,"o":"m 420 681 q 279 681 193 578 q 106 475 106 308 q 106 170 174 92 q 241 13 360 13 q 500 13 585 115 q 671 216 671 382 q 671 522 604 602 q 537 681 420 681 z m 354 -19 q 208 -19 119 72 q 30 162 30 310 q 30 388 58 460 q 86 532 139 589 q 195 650 266 681 q 337 712 422 712 q 568 712 658 624 q 748 535 748 391 q 748 218 635 99 q 521 -19 354 -19 z"},"(":{"x_min":0,"x_max":370,"ha":370,"o":"m 263 -163 q 252 -163 231 -135 q 210 -106 186 -58 q 149 14 133 82 q 116 150 116 229 q 116 322 149 415 q 181 507 246 598 q 280 646 314 680 q 348 714 359 714 q 364 714 367 710 q 370 707 370 702 q 370 697 342 664 q 314 631 295 600 q 248 525 220 417 q 192 309 192 196 q 192 118 201 56 q 209 -5 227 -51 q 239 -84 258 -115 q 276 -146 276 -149 q 276 -155 272 -159 q 269 -163 263 -163 z"},"C":{"x_min":0,"x_max":714,"ha":714,"o":"m 31 318 q 31 484 136 597 q 241 710 395 710 q 495 710 608 655 q 639 640 646 640 q 652 640 661 649 q 669 658 672 658 q 678 658 681 654 q 684 650 684 643 q 684 642 682 622 q 679 602 679 583 q 679 554 683 522 q 687 491 687 488 q 687 480 683 475 q 680 470 674 470 q 664 470 654 507 q 645 544 626 572 q 591 623 529 653 q 466 683 397 683 q 272 683 192 589 q 111 496 111 350 q 111 201 187 108 q 264 15 384 15 q 444 15 506 45 q 568 75 605 121 q 618 137 630 167 q 643 196 653 196 q 657 196 661 191 q 664 186 664 179 q 664 172 653 131 q 645 102 640 82 q 638 74 635 70 q 632 65 626 61 q 575 26 504 5 q 433 -16 362 -16 q 208 -16 120 74 q 31 165 31 318 z"},"W":{"x_min":0,"x_max":910,"ha":910,"o":"m 76 594 q 68 624 62 637 q 56 650 48 660 q 42 667 28 673 q 15 679 15 687 q 15 692 19 696 q 22 700 27 700 q 29 700 37 699 q 66 695 92 695 q 115 695 145 699 q 175 703 182 703 q 191 703 196 700 q 200 696 200 690 q 200 683 172 672 q 144 661 144 632 q 144 623 146 610 q 148 597 152 582 l 265 140 q 270 123 274 114 q 278 105 282 105 q 285 105 292 113 q 299 122 307 136 l 416 316 q 419 320 420 325 q 422 330 422 335 q 422 339 420 346 q 419 354 415 366 l 366 540 q 350 599 338 625 q 327 651 314 659 q 303 666 281 672 q 258 679 258 690 q 258 695 263 699 q 268 703 274 703 q 276 703 284 702 q 317 696 348 696 q 392 696 437 702 q 447 703 449 703 q 456 703 460 700 q 464 696 464 690 q 464 683 440 673 q 416 664 416 638 q 416 628 419 611 q 422 594 430 564 l 457 459 q 460 446 464 440 q 468 433 471 433 q 473 433 476 435 q 479 438 481 441 l 553 583 q 560 597 564 611 q 569 626 569 635 q 569 659 536 671 q 504 682 504 691 q 504 696 509 699 q 514 703 522 703 q 524 703 532 702 q 564 696 593 696 q 620 696 648 699 q 677 703 679 703 q 687 703 691 700 q 695 696 695 690 q 695 680 675 675 q 664 671 658 669 q 648 665 639 654 q 630 643 611 610 l 488 395 q 487 393 485 389 q 481 382 481 379 q 481 375 481 372 q 482 369 483 366 l 550 123 q 554 110 557 106 q 561 102 566 102 q 579 102 613 160 q 647 219 712 352 l 796 524 q 818 568 828 595 q 838 622 838 636 q 838 664 804 672 q 770 680 770 689 q 770 695 775 699 q 779 703 786 703 q 788 703 796 702 q 837 698 875 698 q 900 698 926 701 q 952 703 953 703 q 961 703 965 700 q 969 696 969 689 q 969 678 951 674 q 932 670 926 667 q 906 656 875 597 l 874 595 l 645 159 q 604 80 571 30 q 539 -19 529 -19 q 517 -19 508 15 l 508 16 l 446 245 q 442 259 439 265 q 436 271 433 271 q 430 271 424 264 q 418 257 411 245 l 266 4 q 259 -8 253 -14 q 246 -20 241 -20 q 230 -20 224 13 q 219 38 215 54 z"},"A":{"x_min":0,"x_max":714,"ha":714,"o":"m 480 509 l 601 141 q 603 135 607 123 q 629 56 640 45 q 645 40 652 36 q 659 32 671 28 q 683 25 687 21 q 691 18 691 12 q 691 6 686 2 q 680 -1 670 -1 q 660 -1 630 2 q 599 5 580 5 q 536 5 493 1 q 485 0 484 0 q 481 0 479 3 q 476 6 476 11 q 476 23 500 28 l 500 28 l 515 31 q 530 36 536 43 q 542 51 542 65 q 542 80 531 121 q 521 162 502 222 q 494 248 486 253 q 479 258 447 258 l 203 258 q 192 258 182 248 q 172 237 161 215 l 108 105 q 102 93 99 80 q 96 67 96 56 q 96 46 108 38 q 120 29 139 27 q 142 27 148 26 q 168 25 168 12 q 168 5 164 1 q 160 -3 153 -3 q 150 -3 141 -2 q 99 3 62 3 q 35 3 4 -2 q -4 -3 -6 -3 q -13 -3 -18 0 q -23 4 -23 9 q -23 20 -2 29 q 10 34 15 37 q 38 50 70 113 l 73 119 l 266 485 l 292 536 q 386 714 407 714 q 418 714 441 635 q 462 562 480 509 z m 402 528 q 393 558 385 574 q 376 590 371 590 q 367 590 356 575 q 346 561 332 536 l 242 371 q 231 351 226 338 q 220 325 220 320 q 220 312 230 310 q 241 307 271 307 l 417 307 q 446 307 457 310 q 467 313 467 320 q 467 325 464 336 q 461 348 455 366 z"},"f":{"x_min":0,"x_max":273,"ha":273,"o":"m 101 368 l 101 370 q 101 376 98 380 q 95 384 90 384 l 23 384 q 18 384 15 386 q 12 389 12 394 l 12 409 q 12 414 15 417 q 18 419 24 419 l 96 419 q 105 419 115 470 q 124 522 141 570 q 166 644 213 691 q 260 739 306 739 q 334 739 343 734 q 351 729 351 714 l 351 668 q 351 659 348 655 q 345 650 339 650 q 334 650 315 671 q 297 692 274 692 q 249 692 232 671 q 215 650 202 601 q 189 556 181 502 q 173 448 173 428 q 173 422 175 421 q 177 419 185 419 l 256 419 q 258 419 261 416 q 265 413 265 410 l 265 391 q 265 389 262 386 q 259 384 256 384 l 183 384 q 174 384 170 379 q 166 374 164 360 l 128 41 q 113 -91 77 -145 q 41 -199 -26 -199 q -40 -199 -49 -193 q -57 -187 -57 -178 q -57 -170 -56 -162 q -55 -154 -54 -151 l -43 -115 q -41 -107 -39 -105 q -37 -103 -32 -103 q -24 -103 -16 -131 q -7 -158 9 -158 q 27 -158 37 -131 q 47 -103 57 -10 z"},"Q":{"x_min":0,"x_max":778,"ha":778,"o":"m 420 681 q 279 681 193 578 q 106 475 106 308 q 106 170 174 92 q 241 13 360 13 q 500 13 585 115 q 671 216 671 382 q 671 522 604 602 q 537 681 420 681 z m 108 84 q 68 130 49 185 q 30 240 30 306 q 30 377 52 443 q 74 508 116 562 q 173 636 251 674 q 329 712 422 712 q 568 712 658 624 q 748 535 748 391 q 748 227 646 112 q 543 -4 385 -17 q 467 -69 535 -98 q 603 -127 641 -127 q 673 -127 697 -103 q 721 -79 723 -79 q 728 -79 731 -83 q 734 -86 734 -91 q 734 -116 693 -150 q 652 -184 605 -184 q 561 -184 503 -161 q 445 -139 353 -84 q 321 -65 270 -32 q 167 33 131 33 q 99 33 80 9 q 60 -15 60 -55 q 60 -67 63 -83 q 66 -98 66 -101 q 66 -108 63 -112 q 60 -116 54 -116 q 43 -116 36 -93 q 29 -70 29 -37 q 29 5 53 42 q 77 78 108 84 z"},"w":{"x_min":0,"x_max":663,"ha":663,"o":"m 40 242 q 40 216 50 200 q 61 184 77 184 q 96 184 104 214 q 112 245 112 316 q 112 334 108 344 q 104 354 96 354 q 78 354 59 318 q 40 282 40 242 z m 330 182 q 292 94 244 43 q 197 -8 156 -8 q 134 -8 122 6 q 110 19 105 50 q 100 78 99 109 q 98 140 98 142 q 96 153 80 155 q 67 157 58 161 q 35 171 24 191 q 13 212 13 246 q 13 318 52 376 q 91 434 132 434 q 154 434 165 414 q 176 393 176 351 q 176 320 167 248 q 158 177 158 138 q 158 101 168 80 q 177 59 194 59 q 234 59 278 135 q 321 212 344 334 q 349 362 354 396 q 358 433 378 433 l 402 433 q 410 433 413 430 q 417 428 417 422 q 417 419 405 331 q 392 243 392 163 q 392 104 401 80 q 410 55 431 55 q 456 55 480 77 q 504 100 531 146 q 556 189 567 230 q 579 271 579 311 q 579 337 569 367 q 559 397 559 402 q 559 418 566 426 q 573 433 588 433 q 608 433 617 419 q 625 405 625 370 q 625 304 600 231 q 575 158 531 98 q 496 49 458 20 q 420 -9 393 -9 q 361 -9 345 32 q 330 73 330 158 z"},"-":{"x_min":0,"x_max":331,"ha":331,"o":"m 258 239 q 258 231 253 226 q 249 221 239 217 l 58 153 q 56 152 51 151 q 45 149 44 149 q 42 149 40 152 q 39 156 39 164 l 39 191 q 39 199 44 204 q 49 210 58 213 l 239 278 q 244 279 247 280 q 251 281 252 281 q 255 281 257 278 q 258 275 258 266 z"},"E":{"x_min":0,"x_max":601,"ha":601,"o":"m 141 576 q 142 583 143 592 q 143 600 143 611 q 143 636 135 648 q 126 661 106 669 q 103 670 99 671 q 96 672 90 673 q 89 673 87 674 q 73 678 73 687 q 73 692 77 697 q 82 701 87 701 q 88 701 93 700 q 140 695 209 695 q 318 695 430 700 q 542 706 544 706 q 554 706 557 704 q 560 702 560 694 q 560 693 560 688 q 558 661 558 631 q 558 610 560 588 q 561 566 561 566 q 561 561 557 556 q 553 552 548 552 q 537 552 533 589 q 529 625 511 639 q 491 654 440 661 q 390 667 274 667 q 243 667 232 658 q 221 649 217 611 l 195 413 q 195 410 194 403 q 193 396 193 395 q 193 386 197 383 q 202 380 219 380 l 227 380 l 323 380 q 369 380 389 386 q 408 393 422 409 q 430 418 437 438 q 443 458 453 458 q 457 458 460 453 q 463 447 463 440 q 463 438 461 431 q 453 387 448 331 q 446 312 445 284 q 443 241 430 241 q 424 241 421 246 q 418 250 418 260 l 418 272 q 418 310 396 325 q 374 340 312 340 l 234 340 q 199 340 192 334 q 186 328 182 300 l 159 97 q 158 87 157 79 q 156 70 156 64 q 156 47 170 40 q 185 33 222 33 q 318 33 374 44 q 430 55 467 79 q 493 96 511 118 q 529 139 534 139 q 539 139 541 135 q 543 130 543 123 q 543 114 530 88 q 518 61 500 38 q 479 11 457 0 q 435 -11 395 -11 q 373 -11 282 -4 q 191 3 123 3 q 72 3 30 -2 q 24 -3 23 -3 q 18 -3 14 0 q 11 3 11 9 q 11 20 32 27 l 33 27 q 40 28 42 29 q 45 30 48 31 q 66 38 74 53 q 83 69 88 111 z"},"s":{"x_min":0,"x_max":328,"ha":328,"o":"m 0 51 q 0 68 8 78 q 16 87 31 87 q 52 87 68 56 q 69 53 70 51 q 79 33 92 25 q 105 16 124 16 q 160 16 181 36 q 202 56 202 89 q 202 112 190 133 q 178 155 139 194 q 135 198 127 206 q 53 279 53 327 q 53 375 89 405 q 125 434 186 434 q 224 434 249 419 q 274 405 274 384 q 274 370 266 362 q 258 354 244 354 q 225 354 204 381 q 184 408 157 408 q 136 408 123 395 q 109 382 109 362 q 109 344 123 322 q 138 299 175 261 q 181 255 191 244 q 262 172 262 112 q 262 60 220 23 q 178 -13 116 -13 q 66 -13 33 5 q 0 24 0 51 z"},">":{"x_min":0,"x_max":833,"ha":833,"o":"m 129 554 l 704 318 l 704 278 l 129 43 l 129 96 l 628 298 l 129 501 z"},"l":{"x_min":0,"x_max":225,"ha":225,"o":"m 102 109 q 102 106 101 103 q 100 92 100 88 q 100 73 104 66 q 108 58 117 58 q 140 58 166 91 q 192 124 197 124 q 201 124 204 121 q 206 117 206 111 q 206 85 160 39 q 114 -7 77 -7 q 55 -7 43 10 q 32 26 32 59 q 32 77 35 102 q 37 127 42 158 l 115 647 q 116 654 117 661 q 117 668 117 680 q 117 694 112 698 q 106 703 90 703 q 84 703 72 703 q 60 702 54 702 q 48 702 45 705 q 42 707 42 712 q 42 726 84 729 q 89 730 92 730 q 122 732 151 738 q 179 743 180 743 q 185 743 188 740 q 190 737 190 731 q 190 726 185 695 q 179 664 176 639 z"},"8":{"x_min":0,"x_max":495,"ha":495,"o":"m 206 347 q 143 323 107 273 q 72 224 72 159 q 72 92 110 52 q 148 12 212 12 q 283 12 330 61 q 377 110 377 185 q 377 247 338 284 q 299 322 206 347 z m 277 403 q 336 424 365 458 q 394 493 394 541 q 394 601 357 636 q 319 671 256 671 q 199 671 160 637 q 121 603 121 554 q 121 503 161 465 q 200 427 277 403 z m 179 364 q 127 396 102 438 q 77 479 77 529 q 77 602 132 651 q 188 700 270 700 q 347 700 395 657 q 443 613 443 546 q 443 493 410 452 q 377 411 315 387 q 378 357 409 313 q 440 269 440 209 q 440 113 372 49 q 304 -16 203 -16 q 121 -16 70 32 q 19 81 19 158 q 19 227 59 279 q 100 331 179 364 z"},"\\":{"x_min":0,"x_max":278,"ha":278,"o":"m 202 -93 l 10 699 l 50 699 l 241 -93 z"},"e":{"x_min":0,"x_max":382,"ha":382,"o":"m 222 407 q 196 407 173 391 q 150 375 128 343 q 109 314 98 287 q 87 260 87 244 q 87 236 91 233 q 95 230 108 230 q 170 230 223 269 q 277 307 277 357 q 277 380 262 394 q 247 407 222 407 z m 81 209 q 80 197 79 187 q 78 177 78 168 q 78 107 109 74 q 140 42 197 42 q 252 42 302 77 q 316 87 321 87 q 326 87 329 84 q 332 82 332 77 q 332 55 274 21 q 215 -13 155 -13 q 87 -13 50 28 q 13 69 13 144 q 13 202 37 259 q 60 316 103 362 q 138 399 173 417 q 208 434 249 434 q 292 434 314 414 q 337 394 337 355 q 337 291 268 251 q 200 212 81 209 z"},"b":{"x_min":0,"x_max":449,"ha":449,"o":"m 255 381 q 217 381 186 358 q 154 335 136 294 q 117 249 105 190 q 93 131 93 81 q 93 48 108 31 q 123 15 153 15 q 187 15 218 31 q 248 48 276 81 q 310 121 330 175 q 350 228 350 276 q 350 324 324 353 q 298 381 255 381 z m 31 112 l 121 647 q 122 652 123 659 q 123 666 123 680 q 123 694 117 698 q 112 703 96 703 q 90 703 78 703 q 65 702 60 702 q 54 702 51 705 q 48 707 48 712 q 48 726 90 729 q 95 729 98 730 q 135 733 173 741 q 184 743 186 743 q 192 743 194 739 q 197 735 197 727 q 197 722 190 690 q 184 659 180 635 l 131 336 q 175 388 214 410 q 254 433 300 433 q 354 433 386 397 q 418 360 418 299 q 418 251 397 199 q 376 147 338 98 q 295 43 246 16 q 197 -11 140 -11 q 88 -11 58 13 q 28 37 28 77 q 28 87 29 95 q 29 104 31 112 z"},"%":{"x_min":0,"x_max":786,"ha":786,"o":"m 603 334 q 559 334 526 272 q 493 210 493 123 q 493 73 516 45 q 539 17 579 17 q 624 17 657 77 q 690 138 690 220 q 690 275 667 305 q 645 334 603 334 z m 431 152 q 431 237 479 296 q 527 356 595 356 q 662 356 707 311 q 751 266 751 197 q 751 111 703 53 q 654 -6 583 -6 q 517 -6 474 38 q 431 82 431 152 z m 210 669 q 166 669 133 607 q 100 545 100 458 q 100 408 123 380 q 146 352 186 352 q 231 352 264 412 q 297 473 297 555 q 297 610 274 640 q 252 669 210 669 z m 39 487 q 39 572 87 631 q 136 691 204 691 q 271 691 315 647 q 359 603 359 533 q 359 447 311 389 q 263 330 192 330 q 125 330 82 374 q 39 417 39 487 z m 180 -14 l 567 699 l 607 699 l 220 -14 z"},"m":{"x_min":0,"x_max":705,"ha":705,"o":"m 83 252 q 84 257 86 267 q 93 306 93 321 q 93 341 86 351 q 79 361 65 361 q 45 361 29 334 q 13 307 4 307 q 0 307 -4 311 q -7 315 -7 322 q -7 329 3 349 q 13 369 27 389 q 42 409 59 421 q 76 432 91 432 q 114 432 125 417 q 136 401 136 369 q 136 366 135 356 q 134 347 133 333 l 139 332 q 188 389 224 410 q 259 432 298 432 q 340 432 359 414 q 379 395 384 350 q 420 392 455 412 q 490 432 525 432 q 570 432 593 406 q 615 380 615 330 q 615 317 614 303 q 613 289 611 274 l 594 121 q 592 104 592 94 q 591 84 591 82 q 591 71 596 65 q 601 58 609 58 q 625 58 645 82 q 665 106 674 106 q 679 106 681 103 q 684 100 684 95 q 684 76 641 35 q 598 -6 567 -6 q 545 -6 535 8 q 525 21 525 49 q 525 60 526 70 q 526 81 528 94 l 547 267 q 550 294 551 306 q 552 317 552 324 q 552 360 538 378 q 524 396 496 396 q 453 396 420 346 q 386 296 376 212 l 351 15 q 350 4 343 0 q 336 -3 313 -3 q 299 -3 293 0 q 288 3 288 12 l 288 18 l 320 267 q 322 282 323 297 q 324 312 324 324 q 324 359 310 378 q 295 396 268 396 q 226 396 192 346 q 159 295 142 206 l 107 15 q 104 2 96 -1 q 88 -4 67 -4 q 53 -4 46 0 q 40 3 40 12 q 40 13 41 15 q 41 17 41 18 z"},"#":{"x_min":0,"x_max":769,"ha":769,"o":"m 342 426 l 291 282 l 435 282 l 486 426 z m 387 710 l 443 710 l 359 474 l 503 474 l 587 710 l 642 710 l 558 474 l 712 474 l 695 426 l 541 426 l 491 282 l 657 282 l 639 234 l 473 234 l 390 0 l 335 0 l 418 234 l 275 234 l 191 0 l 136 0 l 219 234 l 57 234 l 75 282 l 236 282 l 287 426 l 112 426 l 129 474 l 304 474 z"},",":{"x_min":0,"x_max":248,"ha":248,"o":"m 87 -11 q 87 17 64 40 q 41 63 41 65 q 41 76 62 100 q 83 125 91 125 q 106 125 125 96 q 144 67 144 36 q 144 -23 104 -81 q 65 -138 41 -138 q 35 -138 32 -136 q 30 -134 30 -129 q 30 -126 58 -91 q 87 -55 87 -11 z"},"n":{"x_min":0,"x_max":488,"ha":488,"o":"m 43 33 l 83 252 q 84 258 86 270 q 93 308 93 321 q 93 341 86 351 q 79 361 65 361 q 45 361 29 334 q 13 307 4 307 q 0 307 -4 311 q -7 315 -7 322 q -7 329 3 349 q 13 369 27 389 q 42 409 59 421 q 76 432 91 432 q 114 432 125 417 q 136 401 136 369 q 136 366 135 356 q 134 347 133 333 l 140 331 q 178 379 222 406 q 266 432 308 432 q 352 432 374 406 q 397 380 397 330 q 397 317 396 303 q 395 289 393 274 l 376 121 q 375 110 374 100 q 373 90 373 82 q 373 71 378 65 q 384 58 392 58 q 408 58 428 82 q 448 106 457 106 q 462 106 464 104 q 466 101 466 95 q 466 76 423 35 q 380 -6 349 -6 q 328 -6 317 8 q 307 21 307 49 q 307 60 308 71 q 309 82 310 94 l 330 267 q 332 286 333 301 q 334 316 334 325 q 334 360 318 378 q 303 396 272 396 q 226 396 193 351 q 159 306 144 222 l 107 15 q 105 3 99 0 q 93 -3 68 -3 q 55 -3 48 0 q 40 3 40 9 q 40 14 41 20 q 42 25 43 33 z"},"h":{"x_min":0,"x_max":462,"ha":462,"o":"m 18 33 l 118 647 q 120 655 120 664 q 121 672 121 680 q 121 694 115 698 q 109 703 93 703 q 87 703 75 703 q 62 702 57 702 q 51 702 48 705 q 45 707 45 712 q 45 726 90 729 q 95 730 98 730 q 135 733 173 741 q 184 743 186 743 q 191 743 193 741 q 196 738 196 732 q 196 727 192 705 q 188 683 186 669 l 136 358 l 142 354 q 173 392 210 412 q 247 432 284 432 q 328 432 350 406 q 373 380 373 330 q 373 317 372 303 q 371 289 369 274 l 352 121 q 351 110 350 100 q 349 90 349 82 q 349 71 354 65 q 359 58 367 58 q 383 58 403 82 q 423 106 432 106 q 437 106 439 103 q 442 101 442 95 q 442 76 399 35 q 356 -6 325 -6 q 304 -6 293 8 q 283 21 283 49 q 283 60 284 71 q 285 82 286 94 l 306 267 q 308 286 309 301 q 310 316 310 325 q 310 360 294 378 q 279 396 248 396 q 202 396 169 351 q 135 306 120 222 l 85 31 q 84 26 83 19 q 80 -2 41 -2 l 32 -2 q 26 -2 21 1 q 16 5 16 9 q 16 16 18 30 q 18 32 18 33 z"},"z":{"x_min":0,"x_max":382,"ha":382,"o":"m 251 307 q 210 312 164 342 q 117 372 100 372 q 84 372 76 363 q 68 354 68 337 q 68 322 79 305 q 90 289 90 285 q 90 281 87 279 q 85 276 81 276 q 69 276 53 299 q 37 322 37 347 q 37 384 60 408 q 83 433 116 433 q 139 433 197 401 q 255 369 287 369 q 311 369 316 399 q 321 428 337 428 q 347 428 352 424 q 357 419 357 411 q 357 402 352 391 q 347 381 335 367 l 124 99 q 161 78 184 54 q 208 31 228 -8 q 231 -13 236 -23 q 265 -76 282 -76 q 298 -76 307 -48 q 317 -20 335 -20 q 345 -20 351 -26 q 357 -32 357 -42 q 357 -64 331 -83 q 305 -103 275 -103 q 229 -103 167 -33 q 158 -21 152 -15 q 125 16 109 27 q 94 39 81 39 q 66 39 53 17 q 41 -6 26 -6 q 19 -6 15 -2 q 11 1 11 9 q 11 21 42 51 q 72 81 95 109 z"},"B":{"x_min":0,"x_max":604,"ha":604,"o":"m 141 576 q 142 583 143 592 q 143 600 143 611 q 143 636 135 648 q 126 661 106 669 q 103 670 99 671 q 96 672 90 673 q 89 673 87 674 q 73 678 73 687 q 73 692 78 697 q 82 701 88 701 q 89 701 97 700 q 145 695 197 695 q 206 695 245 697 q 283 699 313 699 q 420 699 475 659 q 531 619 531 541 q 531 483 495 437 q 459 392 395 369 q 461 358 500 315 q 540 272 540 213 q 540 167 520 126 q 499 84 462 54 q 425 24 383 11 q 340 -2 262 -2 q 227 -2 177 0 q 127 2 113 2 q 71 2 32 -2 q 26 -3 25 -3 q 18 -3 15 0 q 12 2 12 10 q 12 20 33 26 q 48 30 55 34 q 69 42 77 58 q 84 73 88 111 z m 182 320 l 155 83 q 154 80 154 77 q 154 74 154 71 q 154 45 174 36 q 195 26 253 26 q 351 26 407 72 q 463 118 463 196 q 463 281 407 321 q 352 361 232 361 q 200 361 192 354 q 185 348 182 320 z m 215 616 l 195 451 q 194 443 193 435 q 193 427 193 416 q 193 396 216 390 q 239 384 311 384 q 383 384 420 420 q 458 456 458 525 q 458 594 416 632 q 374 670 296 670 q 249 670 234 660 q 219 649 215 616 z"},"K":{"x_min":0,"x_max":659,"ha":659,"o":"m 193 399 l 193 382 q 193 375 194 372 q 195 369 197 369 q 199 369 208 374 q 216 378 225 385 l 443 545 q 499 585 526 612 q 553 639 553 652 q 553 666 528 674 q 502 682 502 692 q 502 697 507 699 q 512 702 520 702 q 521 702 527 702 q 565 698 607 698 q 628 698 652 700 q 676 702 679 702 q 688 702 691 699 q 695 697 695 691 q 695 680 677 674 q 673 673 671 672 q 657 667 614 635 q 593 618 580 609 l 291 393 q 289 392 285 389 q 270 378 270 372 q 270 368 274 361 q 278 355 286 346 l 481 124 q 520 81 541 61 q 562 42 581 32 q 592 26 613 23 q 634 20 634 9 q 634 3 628 0 q 623 -3 614 -3 q 612 -3 607 -2 q 583 0 563 0 q 548 0 530 -1 q 512 -3 509 -3 q 498 -3 488 3 q 479 10 463 29 l 231 311 q 223 321 218 324 q 213 327 207 327 q 199 327 191 318 q 183 310 181 295 l 165 155 l 165 150 q 160 104 160 93 q 160 68 172 51 q 184 34 207 28 q 213 26 225 24 q 249 21 249 9 q 249 3 245 0 q 240 -3 232 -3 q 230 -3 220 -2 q 157 3 91 3 q 75 3 54 0 q 32 -3 27 -3 q 19 -3 15 0 q 12 3 12 10 q 12 16 16 19 q 20 22 33 26 q 34 26 36 27 q 48 30 55 34 q 69 42 77 58 q 84 73 88 111 l 141 576 q 142 584 143 593 q 143 602 143 613 q 143 636 133 649 q 123 663 101 671 q 98 672 93 673 q 88 674 80 675 q 65 677 61 681 q 56 684 56 690 q 56 695 61 698 q 66 702 73 702 q 75 702 86 701 q 130 694 171 694 q 204 694 240 698 q 276 702 279 702 q 285 702 289 699 q 293 696 293 691 q 293 681 274 676 q 254 672 245 665 q 232 656 225 640 q 219 625 215 591 z"},"R":{"x_min":0,"x_max":604,"ha":604,"o":"m 219 619 l 197 436 q 197 435 197 434 q 195 416 195 407 q 195 391 208 386 q 221 382 284 382 q 367 382 411 421 q 455 460 455 534 q 455 604 419 640 q 382 677 312 677 q 260 677 242 666 q 224 655 219 619 z m 141 576 q 142 583 143 593 q 143 602 143 617 q 143 637 135 650 q 128 662 112 668 l 94 674 q 80 677 75 681 q 70 685 70 690 q 70 694 74 698 q 79 701 85 701 q 86 701 91 701 q 115 698 139 698 q 178 698 237 702 q 295 706 314 706 q 423 706 478 667 q 533 629 533 553 q 533 504 509 463 q 484 421 439 394 q 420 382 395 373 q 370 365 370 359 q 370 354 372 346 q 375 338 378 329 l 478 83 q 489 57 509 40 q 529 23 550 23 q 552 23 557 23 q 562 24 566 24 q 569 24 572 21 q 574 18 574 14 q 574 4 556 -1 q 538 -7 504 -7 q 460 -7 437 11 q 414 30 393 85 l 317 291 q 314 299 310 312 q 298 344 265 347 l 227 350 q 220 351 212 351 q 205 352 204 352 q 194 352 190 347 q 187 341 184 322 l 165 155 l 165 150 q 160 104 160 93 q 160 68 172 51 q 184 34 207 28 q 212 26 216 26 q 221 25 225 25 q 240 23 244 19 q 249 16 249 9 q 249 3 245 0 q 240 -4 232 -4 q 220 -4 184 0 q 148 4 125 4 q 97 4 62 0 q 27 -4 23 -4 q 17 -4 14 0 q 11 3 11 9 q 11 21 33 26 q 43 29 48 31 q 66 38 74 53 q 83 69 88 111 z"},"T":{"x_min":0,"x_max":659,"ha":659,"o":"m 319 612 q 320 620 321 623 q 321 627 321 631 q 321 646 310 651 q 299 656 257 656 l 219 656 q 153 656 127 649 q 100 642 84 623 q 68 604 57 579 q 46 554 41 554 q 35 554 30 557 q 26 561 26 565 q 26 568 37 596 q 48 625 55 650 q 57 656 60 668 q 68 702 86 702 q 93 702 120 698 q 148 695 168 695 l 541 695 q 580 695 625 701 q 636 702 638 702 q 645 702 649 698 q 653 695 653 690 q 653 689 652 686 q 649 667 649 648 q 649 616 653 578 q 654 568 654 566 q 654 559 651 555 q 648 551 643 551 q 632 551 627 580 q 623 609 615 623 q 604 641 574 648 q 543 656 475 656 l 444 656 q 413 656 404 650 q 396 645 392 615 l 339 155 q 336 134 335 117 q 334 100 334 93 q 334 68 346 51 q 358 34 381 28 q 386 26 390 26 q 395 25 399 25 q 414 23 418 19 q 423 16 423 9 q 423 3 418 0 q 414 -4 406 -4 q 405 -4 369 -1 q 332 2 297 2 q 264 2 230 -1 q 196 -4 195 -4 q 191 -4 189 0 q 186 4 186 9 q 186 21 208 26 q 217 29 222 31 q 240 39 249 54 q 258 70 263 111 z"},"P":{"x_min":0,"x_max":550,"ha":550,"o":"m 141 576 q 142 584 143 593 q 143 602 143 613 q 143 635 134 648 q 125 662 107 669 q 102 671 90 673 q 89 673 88 673 q 74 675 69 678 q 65 682 65 688 q 65 692 70 696 q 74 700 81 700 q 82 700 88 699 q 125 695 169 695 q 199 695 257 699 q 315 703 343 703 q 424 703 473 659 q 523 614 523 544 q 523 447 456 384 q 390 321 283 321 q 249 321 234 325 q 219 330 219 340 q 219 345 223 349 q 227 352 233 352 q 237 352 248 350 q 259 348 265 348 q 343 348 392 398 q 442 448 442 525 q 442 597 400 634 q 358 672 278 672 q 243 672 232 662 q 222 651 218 614 l 165 155 q 163 136 161 120 q 160 104 160 93 q 160 66 173 50 q 186 33 212 28 q 218 27 230 25 q 259 21 259 9 q 259 2 254 -1 q 249 -4 238 -4 q 234 -4 222 -3 q 174 2 132 2 q 81 2 34 -3 q 28 -4 26 -4 q 19 -4 15 -1 q 12 2 12 10 q 12 16 16 19 q 20 22 33 26 q 34 26 36 27 q 48 30 55 34 q 69 42 77 58 q 84 73 88 111 z"},"|":{"x_min":0,"x_max":500,"ha":500,"o":"m 224 764 l 277 764 l 277 -236 l 224 -236 z"},"t":{"x_min":0,"x_max":274,"ha":274,"o":"m 49 156 l 78 368 q 78 370 79 372 q 79 375 79 375 q 79 380 76 382 q 73 384 65 384 l 41 384 q 32 384 29 386 q 26 388 26 393 q 26 401 52 417 q 79 434 95 447 q 114 463 134 490 q 154 516 163 516 q 168 516 171 513 q 173 511 173 505 q 173 501 171 494 l 157 433 q 157 432 156 431 q 156 429 156 428 q 156 423 159 421 q 162 419 166 419 l 239 419 q 244 419 247 416 q 250 413 250 408 l 250 394 q 250 389 247 386 q 244 384 237 384 l 160 384 q 152 384 149 382 q 146 380 144 370 l 115 176 q 111 149 109 131 q 107 113 107 100 q 107 78 117 66 q 127 54 147 54 q 173 54 203 82 q 232 110 235 110 q 240 110 243 107 q 246 104 246 99 q 246 93 238 82 q 229 70 210 50 q 180 20 155 5 q 130 -10 107 -10 q 73 -10 57 11 q 41 32 41 76 q 41 98 48 150 z"},"M":{"x_min":0,"x_max":873,"ha":873,"o":"m 478 118 q 462 87 443 42 q 424 -1 418 -1 q 411 -1 380 71 q 357 125 341 161 l 218 435 q 215 442 209 454 q 194 491 187 491 q 183 491 179 479 q 175 468 170 441 l 114 112 q 112 104 112 96 q 111 88 111 80 q 111 57 120 45 q 130 34 157 27 q 160 26 163 25 q 166 25 172 25 l 181 25 l 182 25 q 203 22 203 10 q 203 4 199 0 q 195 -4 190 -4 q 185 -4 148 -1 q 111 2 81 2 q 61 2 39 -1 q 18 -4 16 -4 q 10 -4 6 1 q 1 6 1 12 q 1 22 18 27 q 35 32 42 39 q 62 57 71 104 q 72 109 73 112 l 131 408 q 137 439 140 464 q 143 490 143 508 q 143 584 132 615 q 120 645 91 664 q 81 670 56 675 q 55 675 54 675 l 53 675 q 27 680 27 692 q 27 697 30 700 q 34 703 40 703 q 41 703 59 702 q 78 700 96 700 q 111 700 130 702 q 149 703 153 703 q 183 703 217 619 q 237 569 252 536 l 417 168 l 418 166 q 432 133 437 133 q 439 133 446 143 q 453 153 460 167 l 638 512 q 671 576 701 651 q 721 703 738 703 q 742 703 755 702 q 769 701 778 701 q 788 701 802 703 q 815 705 819 705 q 823 705 826 701 q 830 697 830 693 q 830 683 814 680 l 814 680 q 813 680 811 679 q 789 673 776 659 q 767 650 763 621 q 759 593 758 525 l 755 106 l 755 94 q 755 63 759 52 q 762 42 772 35 q 785 27 811 25 q 812 25 812 25 q 828 24 832 21 q 837 18 837 11 q 837 3 832 0 q 828 -4 817 -4 q 815 -4 781 -1 q 747 2 715 2 q 704 2 676 -1 q 647 -4 631 -4 q 620 -4 615 0 q 609 3 609 11 q 609 21 626 25 q 626 25 627 25 q 637 26 644 29 q 651 31 658 36 q 683 52 685 140 q 685 143 685 144 l 689 425 l 689 441 l 689 463 q 689 478 686 488 q 683 497 679 497 q 673 497 662 479 q 650 460 629 418 z"},"g":{"x_min":0,"x_max":389,"ha":389,"o":"m 119 -16 q 107 -12 92 -3 q 77 5 72 5 q 54 5 38 -16 q 21 -36 21 -64 q 21 -119 59 -149 q 97 -178 168 -178 q 221 -178 248 -162 q 276 -146 276 -116 q 276 -92 260 -77 q 244 -62 201 -46 z m 191 410 q 150 410 127 368 q 104 327 104 253 q 104 201 121 174 q 138 147 172 147 q 212 147 234 189 q 256 231 256 308 q 256 357 239 384 q 222 410 191 410 z m 62 27 q 51 48 47 60 q 43 71 43 81 q 43 94 54 109 q 64 125 88 144 q 64 169 54 195 q 43 222 43 254 q 43 330 85 383 q 128 435 187 435 q 206 435 240 425 q 275 414 294 414 q 321 414 357 425 l 359 426 q 360 426 363 427 q 377 432 382 432 q 392 432 397 427 q 402 421 402 409 q 402 393 392 385 q 382 377 361 377 q 349 377 332 381 q 315 385 291 393 q 307 373 314 351 q 321 328 321 299 q 321 225 278 174 q 235 123 173 123 q 161 123 141 126 q 122 130 115 130 q 101 130 92 121 q 83 113 83 98 q 83 78 97 64 q 110 51 140 41 l 220 14 q 286 -9 311 -33 q 335 -57 335 -96 q 335 -148 294 -175 q 252 -201 171 -201 q 74 -201 22 -169 q -31 -136 -31 -77 q -31 -40 -8 -14 q 15 12 62 27 z"},"j":{"x_min":0,"x_max":221,"ha":221,"o":"m 90 329 q 91 342 92 347 q 92 353 92 358 q 92 378 84 386 q 77 394 59 394 q 55 394 45 393 q 36 392 31 392 q 23 392 20 395 q 16 397 16 403 q 16 417 58 420 q 63 421 66 421 q 96 423 125 429 q 153 434 154 434 q 159 434 162 431 q 164 428 164 422 q 164 419 163 407 q 162 402 162 400 l 109 1 q 96 -96 56 -151 q 17 -206 -38 -206 q -61 -206 -70 -191 q -78 -175 -78 -136 q -78 -125 -74 -119 q -71 -112 -66 -112 q -60 -112 -39 -137 q -18 -163 -3 -163 q 20 -163 36 -55 l 37 -46 z m 119 592 q 118 595 117 598 q 116 601 116 605 q 116 611 118 615 q 119 620 122 623 l 149 650 q 152 653 155 655 q 158 656 161 656 q 166 656 170 654 q 173 652 175 648 l 188 620 q 190 616 191 612 q 192 607 192 603 q 192 597 191 593 q 190 589 188 586 l 165 559 q 162 556 158 553 q 154 551 151 551 q 147 551 143 553 q 139 556 137 560 z"},"i":{"x_min":0,"x_max":221,"ha":221,"o":"m 119 592 q 118 595 117 598 q 116 601 116 605 q 116 611 118 615 q 119 620 122 623 l 149 650 q 152 653 155 655 q 158 656 161 656 q 166 656 170 654 q 173 652 175 648 l 188 620 q 190 616 191 612 q 192 607 192 603 q 192 597 191 593 q 190 589 188 586 l 165 559 q 162 556 158 553 q 154 551 151 551 q 147 551 143 553 q 139 556 137 560 z m 42 158 l 82 337 q 84 347 86 356 q 87 365 87 371 q 87 383 80 389 q 73 394 58 394 q 54 394 45 393 q 36 392 31 392 q 23 392 20 395 q 16 397 16 403 q 16 417 58 420 q 63 421 66 421 q 96 423 125 429 q 153 434 154 434 q 159 434 162 431 q 164 428 164 422 q 164 409 153 363 q 148 341 145 328 l 98 108 q 97 104 97 100 q 96 95 96 90 q 96 77 102 69 q 107 61 116 61 q 136 61 155 94 q 174 127 181 127 q 185 127 188 123 q 191 120 191 114 q 191 85 152 39 q 113 -7 76 -7 q 53 -7 39 10 q 26 27 26 58 q 26 72 29 91 q 32 111 42 158 z"},"y":{"x_min":0,"x_max":419,"ha":419,"o":"m 281 125 q 300 182 309 224 q 318 266 318 299 q 318 335 304 366 q 291 397 291 406 q 291 418 300 427 q 309 435 322 435 q 341 435 351 417 q 361 400 361 366 q 361 313 339 226 q 318 138 280 42 q 231 -82 179 -141 q 126 -201 68 -201 q 37 -201 17 -187 q -3 -173 -3 -151 q -3 -136 5 -127 q 13 -119 28 -119 q 40 -119 61 -134 q 83 -148 99 -148 q 123 -148 142 -135 q 161 -123 183 -92 q 208 -57 221 -25 q 235 8 235 31 q 235 62 214 121 q 192 181 153 259 q 124 316 105 339 q 86 361 68 361 q 39 361 26 323 q 14 284 6 284 q 0 284 -2 289 q -4 294 -4 306 q -4 356 20 396 q 44 435 79 435 q 124 435 176 356 q 227 277 281 125 z"},"@":{"x_min":0,"x_max":986,"ha":986,"o":"m 582 166 q 553 114 515 88 q 476 61 430 61 q 371 61 334 106 q 298 151 298 225 q 298 277 322 329 q 346 381 389 424 q 422 456 459 474 q 497 491 533 491 q 575 491 603 466 q 630 441 641 394 l 668 483 l 732 483 l 649 187 q 644 168 642 157 q 640 146 640 136 q 640 110 653 96 q 666 82 689 82 q 712 82 742 97 q 772 111 798 136 q 843 179 869 243 q 894 307 894 379 q 894 518 799 602 q 705 687 550 687 q 464 687 389 658 q 315 630 257 575 q 192 514 158 431 q 125 348 125 247 q 125 161 152 98 q 180 36 239 -15 q 295 -64 368 -89 q 440 -114 525 -114 q 606 -114 683 -88 q 759 -62 826 -12 l 841 -29 q 769 -82 689 -109 q 608 -136 522 -136 q 430 -136 356 -114 q 282 -91 222 -46 q 148 10 110 89 q 72 167 72 262 q 72 362 114 448 q 156 534 236 600 q 300 654 378 681 q 455 708 544 708 q 712 708 814 617 q 915 525 915 374 q 915 297 887 230 q 858 163 806 115 q 777 88 746 75 q 714 61 682 61 q 635 61 610 87 q 585 114 582 166 z m 534 473 q 507 473 485 458 q 462 443 439 408 q 403 354 382 293 q 361 232 361 185 q 361 138 382 111 q 403 83 438 83 q 471 83 501 105 q 531 126 559 170 q 587 214 604 267 q 620 320 620 365 q 620 412 595 442 q 571 473 534 473 z"},".":{"x_min":0,"x_max":248,"ha":248,"o":"m 50 47 q 48 50 47 53 q 46 56 46 59 q 46 63 47 67 q 48 70 50 72 l 91 111 q 94 114 98 116 q 101 118 104 118 q 106 118 109 115 q 112 113 115 109 l 145 70 q 147 67 148 65 q 149 63 149 61 q 149 58 148 55 q 146 53 144 50 l 103 7 q 100 4 96 2 q 93 0 91 0 q 88 0 84 2 q 81 4 78 8 z"},"p":{"x_min":0,"x_max":440,"ha":440,"o":"m 107 66 q 106 62 106 59 q 106 56 106 51 l 106 43 q 106 25 113 19 q 121 12 138 12 q 221 12 277 83 q 334 154 334 261 q 334 334 300 372 q 266 410 200 410 q 169 410 160 405 q 150 400 147 377 z m 20 -108 l 82 390 q 68 386 51 379 q 33 371 28 371 q 22 371 18 374 q 14 377 14 382 q 14 399 69 415 q 81 418 86 420 l 97 512 q 100 540 111 553 q 123 566 143 566 q 154 566 160 561 q 166 556 166 546 q 166 539 164 527 l 153 429 q 158 429 169 430 q 203 433 216 433 q 310 433 356 395 q 403 357 403 282 q 403 165 326 76 q 250 -12 144 -12 q 130 -12 101 -8 l 98 -8 l 85 -109 q 84 -120 83 -126 q 83 -132 83 -137 q 83 -152 90 -160 q 96 -168 112 -173 q 116 -174 122 -175 q 128 -176 139 -176 q 140 -176 142 -176 q 164 -178 164 -190 q 164 -196 158 -199 q 153 -203 144 -203 q 140 -203 109 -201 q 78 -198 52 -198 q 23 -198 -9 -202 q -19 -203 -21 -203 q -29 -203 -34 -199 q -39 -195 -39 -190 q -39 -180 -23 -174 q -7 -169 -4 -167 q 6 -161 11 -149 q 17 -137 20 -108 z"},"X":{"x_min":0,"x_max":660,"ha":660,"o":"m 289 316 l 290 317 q 315 350 315 359 q 315 368 298 409 q 281 451 252 512 q 211 600 185 625 q 159 651 124 651 q 94 651 74 632 q 55 613 55 584 q 55 560 67 543 q 80 527 98 527 q 108 527 114 522 q 120 518 120 509 q 120 502 115 498 q 109 493 101 493 q 72 493 50 518 q 28 543 28 581 q 28 635 64 670 q 101 705 158 705 q 211 705 248 667 q 285 629 329 520 q 337 501 347 472 q 361 434 368 434 q 372 434 375 437 q 378 439 382 444 l 498 597 q 509 612 516 625 q 522 638 522 646 q 522 657 513 666 q 504 674 489 676 q 485 677 480 677 q 461 680 461 691 q 461 697 465 702 q 468 706 474 706 q 476 706 486 705 q 533 701 578 701 q 602 701 629 704 q 636 704 638 704 q 647 704 651 701 q 655 697 655 690 q 655 678 634 671 q 624 668 618 665 q 600 655 582 638 q 563 620 532 580 l 438 460 q 413 429 401 409 q 388 389 388 381 q 388 373 398 345 q 408 318 425 283 l 510 101 q 529 60 542 45 q 556 31 575 31 q 595 31 616 37 q 621 38 622 38 q 627 38 631 34 q 635 30 635 25 q 635 11 609 2 q 583 -7 544 -7 q 502 -7 476 19 q 450 45 417 124 l 351 283 q 346 295 341 302 q 337 308 334 308 q 329 308 318 296 q 307 284 288 258 l 185 117 q 172 100 166 86 q 159 73 159 64 q 159 49 168 41 q 177 32 201 25 l 216 22 q 228 21 231 18 q 235 15 235 9 q 235 2 230 -1 q 225 -4 215 -4 q 212 -4 202 -3 q 159 0 118 0 q 70 0 26 -3 q 21 -4 19 -4 q 11 -4 8 -1 q 5 1 5 8 q 5 13 45 33 q 86 52 119 95 z"},"*":{"x_min":0,"x_max":500,"ha":500,"o":"m 254 524 l 254 532 q 254 568 237 611 q 220 654 220 667 q 220 688 231 701 q 242 714 260 714 q 277 714 289 702 q 300 690 300 671 q 300 656 283 612 q 266 567 266 530 l 266 524 q 300 542 336 587 q 373 632 402 632 q 418 632 428 621 q 439 610 439 594 q 439 577 426 564 q 414 552 390 547 q 386 546 375 545 q 317 539 272 513 q 311 489 369 482 q 386 480 392 479 q 414 473 426 460 q 439 448 439 432 q 439 416 427 405 q 416 393 399 393 q 374 393 338 438 q 301 483 266 503 l 266 495 q 266 459 283 416 q 300 372 300 359 q 300 338 288 325 q 277 312 259 312 q 242 312 231 324 q 220 336 220 356 q 220 371 237 415 q 254 460 254 497 l 254 503 q 220 486 184 440 q 147 394 118 394 q 102 394 92 405 q 81 417 81 433 q 81 451 94 463 q 106 475 130 480 q 135 481 146 482 q 204 487 248 513 q 208 537 151 543 q 135 545 128 547 q 105 553 93 565 q 81 577 81 594 q 81 610 93 622 q 104 633 121 633 q 146 633 182 588 q 219 543 254 524 z"},"Y":{"x_min":0,"x_max":550,"ha":550,"o":"m 225 278 q 225 279 226 287 q 227 294 227 301 q 227 310 225 318 q 223 327 218 336 l 75 627 q 66 644 55 655 q 43 667 23 675 l 22 675 q 5 683 5 692 q 5 697 10 700 q 14 704 20 704 q 21 704 29 703 q 63 696 97 696 q 120 696 148 700 q 177 704 183 704 q 192 704 198 701 q 204 698 204 693 q 204 685 178 675 q 152 665 152 644 q 152 638 155 629 q 158 620 169 597 l 269 395 q 271 392 272 388 q 283 367 292 367 q 294 367 297 369 q 299 371 302 375 l 421 556 q 446 594 454 611 q 462 628 462 641 q 462 653 457 660 q 452 667 436 672 q 426 675 411 677 q 392 680 392 691 q 392 697 396 700 q 400 704 406 704 q 410 704 433 702 q 456 699 474 699 q 524 699 567 704 q 573 704 574 704 q 581 704 586 700 q 592 696 592 691 q 592 683 565 674 q 538 664 518 635 l 342 379 l 339 375 q 300 318 294 260 l 283 155 l 283 152 q 278 102 278 93 q 278 68 290 51 q 302 34 325 28 q 331 26 343 24 q 367 21 367 9 q 367 3 363 0 q 358 -4 350 -4 q 346 -4 331 -2 q 273 3 223 3 q 197 3 171 0 q 146 -4 144 -4 q 136 -4 133 0 q 129 3 129 10 q 129 16 133 19 q 138 23 150 26 q 160 28 164 30 q 169 32 173 34 q 188 42 195 58 q 202 73 206 111 z"},"c":{"x_min":0,"x_max":392,"ha":392,"o":"m 219 399 q 157 399 117 339 q 77 279 77 184 q 77 116 106 78 q 136 40 188 40 q 247 40 308 85 q 325 98 330 98 q 334 98 335 97 q 336 96 336 92 q 336 63 275 25 q 215 -13 148 -13 q 81 -13 46 28 q 11 69 11 149 q 11 262 83 346 q 155 431 247 431 q 293 431 325 412 q 356 393 356 367 q 356 353 347 343 q 338 333 326 333 q 306 333 277 366 q 249 399 219 399 z"},"!":{"x_min":0,"x_max":328,"ha":328,"o":"m 152 581 q 153 604 162 613 q 170 622 191 622 q 210 622 217 617 q 224 613 224 600 q 224 598 221 575 q 220 568 219 563 l 175 299 q 174 292 172 280 q 157 183 143 183 q 139 183 136 187 q 133 191 133 195 q 134 200 134 207 z m 81 47 q 78 51 77 54 q 76 56 76 59 q 76 63 77 66 q 79 69 81 72 l 122 111 q 125 114 128 116 q 131 118 134 118 q 136 118 139 115 q 143 113 145 109 l 176 70 q 178 67 179 65 q 180 62 180 61 q 180 59 179 55 q 177 52 175 50 l 133 7 q 130 4 127 2 q 124 0 122 0 q 119 0 115 2 q 111 4 109 8 z"},"/":{"x_min":0,"x_max":278,"ha":278,"o":"m 45 -93 l 6 -93 l 270 699 l 309 699 z"},"[":{"x_min":0,"x_max":370,"ha":370,"o":"m 61 -151 l 157 694 l 329 694 l 325 666 l 273 666 q 239 666 229 657 q 218 649 214 608 l 138 -63 q 138 -66 137 -71 q 136 -85 136 -92 q 136 -110 146 -116 q 156 -122 190 -122 l 236 -122 l 232 -151 z"},"6":{"x_min":0,"x_max":495,"ha":495,"o":"m 105 238 q 105 143 146 80 q 186 18 247 18 q 307 18 343 70 q 379 122 379 210 q 379 296 340 351 q 300 406 240 406 q 181 406 143 359 q 105 312 105 238 z m 132 384 q 162 417 194 433 q 226 448 264 448 q 344 448 396 387 q 448 326 448 229 q 448 126 384 55 q 320 -15 228 -15 q 143 -15 88 55 q 33 125 33 236 q 33 331 78 428 q 122 526 197 597 q 249 646 313 677 q 378 708 416 708 q 426 708 432 704 q 438 701 438 695 q 438 686 401 676 q 364 666 328 646 q 258 607 207 539 q 156 472 132 384 z"},"r":{"x_min":0,"x_max":343,"ha":343,"o":"m 86 33 l 116 252 q 118 263 118 275 q 119 287 119 298 q 119 328 110 344 q 101 361 85 361 q 73 361 61 350 q 49 339 41 321 q 39 316 36 306 q 31 287 22 287 q 18 287 14 292 q 11 296 11 304 q 11 341 42 386 q 73 430 103 430 q 127 430 143 403 q 158 376 160 328 l 166 325 q 196 379 229 406 q 261 432 296 432 q 315 432 326 426 q 337 420 337 409 q 337 404 336 398 q 334 392 332 386 l 317 348 q 314 339 311 336 q 309 334 304 334 q 299 334 287 355 q 276 377 253 377 q 225 377 208 344 q 192 311 181 231 l 150 15 q 148 3 140 0 q 131 -3 109 -3 q 98 -3 90 0 q 83 4 83 9 q 83 14 84 23 q 86 31 86 33 z"},"2":{"x_min":0,"x_max":495,"ha":495,"o":"m 123 100 q 116 92 111 84 q 106 77 106 75 q 106 70 123 67 q 140 65 176 65 q 245 65 271 68 q 297 71 314 78 q 337 87 357 113 q 377 139 388 139 q 394 139 396 136 q 398 134 398 128 q 398 115 375 83 q 352 51 340 29 q 337 24 333 16 q 324 -5 306 -5 q 303 -5 289 -4 q 201 0 109 0 q 72 0 31 -6 q 21 -8 17 -8 q 10 -8 5 -4 q 0 0 0 4 q 0 8 60 75 q 119 141 172 210 q 251 313 292 399 q 333 484 333 547 q 333 600 305 628 q 277 657 226 657 q 175 657 135 627 q 96 597 93 597 q 88 597 86 600 q 84 603 84 609 q 84 633 139 668 q 195 703 257 703 q 328 703 369 665 q 411 626 411 563 q 411 502 362 415 q 312 328 203 196 z"},"{":{"x_min":0,"x_max":500,"ha":500,"o":"m 413 740 l 413 716 q 341 715 315 689 q 289 664 289 587 l 289 516 q 289 406 258 366 q 228 325 144 310 q 228 294 258 254 q 289 214 289 104 l 289 33 q 289 -43 315 -69 q 341 -94 413 -95 l 413 -119 l 408 -119 q 303 -119 264 -83 q 225 -48 225 50 l 225 156 q 225 232 196 261 q 167 291 86 297 l 86 324 q 168 332 197 360 q 225 389 225 465 l 225 571 q 225 668 264 704 q 303 740 408 740 z"},"9":{"x_min":0,"x_max":495,"ha":495,"o":"m 387 444 q 387 539 346 602 q 306 665 245 665 q 185 665 149 613 q 114 561 114 473 q 114 387 153 331 q 193 276 253 276 q 312 276 350 323 q 387 369 387 444 z m 360 299 q 330 266 298 250 q 266 234 228 234 q 147 234 96 295 q 44 356 44 453 q 44 556 108 626 q 172 697 265 697 q 350 697 404 627 q 459 557 459 446 q 459 351 415 253 q 371 155 296 85 q 244 36 179 5 q 114 -26 76 -26 q 66 -26 60 -22 q 54 -19 54 -13 q 54 -3 91 7 q 128 17 164 37 q 234 76 285 144 q 335 211 360 299 z"}," ":{"x_min":0,"x_max":248,"ha":248,"o":""},"I":{"x_min":0,"x_max":311,"ha":311,"o":"m 144 576 q 145 584 146 593 q 146 602 146 613 q 146 636 136 649 q 126 663 104 671 q 101 672 96 673 q 91 674 83 675 q 68 677 64 681 q 59 684 59 690 q 59 695 64 698 q 69 702 76 702 q 78 702 88 701 q 133 694 175 694 q 208 694 244 698 q 280 702 283 702 q 289 702 293 699 q 297 696 297 691 q 297 681 278 676 q 259 672 249 665 q 236 656 229 640 q 223 624 219 591 l 165 112 q 165 109 164 105 q 164 101 164 94 q 164 70 173 55 q 182 40 201 32 q 210 28 227 25 q 253 21 253 9 q 253 3 249 0 q 244 -3 236 -3 q 236 -3 199 0 q 162 2 126 2 q 80 2 37 -2 q 30 -3 28 -3 q 21 -3 18 0 q 14 3 14 9 q 14 20 35 27 l 36 27 q 42 28 46 29 q 49 30 51 31 q 69 38 77 53 q 86 69 91 111 z"},"H":{"x_min":0,"x_max":759,"ha":759,"o":"m 165 155 q 163 135 161 118 q 160 102 160 91 q 160 66 172 50 q 184 34 206 28 q 211 26 215 26 q 220 25 224 25 q 239 23 243 19 q 248 16 248 9 q 248 3 244 0 q 239 -3 231 -3 q 231 -3 195 0 q 158 2 122 2 q 76 2 34 -2 q 27 -3 25 -3 q 17 -3 14 0 q 11 3 11 10 q 11 21 34 26 q 47 30 54 33 q 68 40 76 55 q 84 71 87 98 l 141 576 q 142 584 143 593 q 143 601 143 613 q 143 636 133 649 q 123 663 101 671 q 98 672 93 673 q 88 674 80 675 q 65 677 61 681 q 56 684 56 690 q 56 695 61 698 q 66 702 73 702 q 75 702 86 701 q 130 694 171 694 q 204 694 240 698 q 276 702 279 702 q 285 702 289 699 q 293 696 293 691 q 293 681 274 676 q 254 672 245 665 q 232 656 225 640 q 219 625 215 591 l 194 409 l 194 402 q 194 393 198 390 q 203 387 216 387 l 550 387 q 568 387 573 392 q 578 397 580 416 l 598 576 q 600 588 600 597 q 601 607 601 613 q 601 635 591 649 q 581 663 558 671 q 552 673 541 674 q 539 675 538 675 q 523 677 519 681 q 514 684 514 690 q 514 695 519 698 q 524 702 530 702 q 532 702 543 701 q 587 694 628 694 q 661 694 698 698 q 734 702 737 702 q 743 702 747 699 q 750 696 750 691 q 750 680 731 676 q 712 672 703 665 q 678 646 671 580 q 670 574 670 570 l 622 155 q 620 135 618 119 q 617 102 617 91 q 617 66 629 50 q 641 34 664 28 q 669 26 673 26 q 678 25 682 25 q 697 23 701 19 q 706 16 706 9 q 706 3 702 0 q 697 -3 689 -3 q 689 -3 652 0 q 615 2 579 2 q 533 2 491 -2 q 485 -3 483 -3 q 475 -3 471 0 q 468 3 468 10 q 468 21 491 26 q 504 30 511 33 q 525 40 533 55 q 541 71 544 98 l 569 325 l 569 332 q 569 342 564 346 q 560 350 548 350 l 210 350 q 199 350 192 344 q 186 337 184 325 z"},"4":{"x_min":0,"x_max":495,"ha":495,"o":"m 281 201 l 34 201 q 18 201 10 205 q 1 209 1 217 q 1 223 5 229 q 8 236 22 253 l 370 675 q 373 678 376 683 q 390 699 397 699 q 400 699 403 696 q 406 692 406 687 q 406 683 406 680 q 405 676 405 673 l 354 265 q 361 266 373 266 q 406 268 412 273 q 416 276 426 289 q 436 302 446 302 q 452 302 454 299 q 456 296 456 289 q 456 277 444 248 q 432 218 425 211 q 419 206 403 203 q 387 201 345 201 l 316 -28 l 316 -30 q 310 -75 285 -75 q 261 -75 255 -72 q 248 -68 248 -58 q 248 -50 250 -38 q 252 -26 253 -23 z m 288 258 l 331 577 l 70 258 z"},"~":{"x_min":0,"x_max":833,"ha":833,"o":"m 747 366 l 747 311 q 697 276 650 259 q 604 241 558 241 q 510 241 431 269 q 421 272 417 274 l 409 277 q 323 308 276 308 q 235 308 190 290 q 146 271 87 230 l 87 285 q 139 321 186 338 q 232 356 276 356 q 327 356 409 326 q 414 324 417 323 q 422 321 433 317 q 514 288 558 288 q 600 288 645 307 q 689 325 747 366 z"},"D":{"x_min":0,"x_max":723,"ha":723,"o":"m 212 567 l 161 107 q 160 91 159 81 q 158 71 158 68 q 158 46 173 37 q 188 28 225 28 q 320 28 379 46 q 438 63 483 103 q 545 158 581 241 q 617 324 617 414 q 617 539 544 608 q 471 677 340 677 q 268 677 244 661 q 221 645 212 567 z m 141 576 q 142 584 143 593 q 143 601 143 613 q 143 636 133 649 q 123 663 101 671 q 98 672 93 673 q 88 674 80 675 q 65 677 61 681 q 56 684 56 690 q 56 695 61 698 q 66 702 73 702 q 75 702 83 701 q 127 695 172 695 q 196 695 262 700 q 328 706 369 706 q 524 706 610 631 q 696 555 696 421 q 696 329 653 237 q 610 146 538 85 q 485 41 416 18 q 346 -5 262 -5 q 240 -5 194 -1 q 148 2 125 2 q 72 2 30 -2 q 24 -3 23 -3 q 18 -3 14 0 q 11 3 11 9 q 11 15 15 19 q 20 22 33 26 q 35 27 41 29 q 46 30 48 31 q 66 38 74 53 q 83 69 88 111 z"},"^":{"x_min":0,"x_max":1000,"ha":1000,"o":"m 459 714 l 540 714 l 797 438 l 754 438 l 499 658 l 243 438 l 201 438 z"},"0":{"x_min":0,"x_max":495,"ha":495,"o":"m 234 38 q 310 38 365 134 q 419 229 419 372 q 419 497 375 576 q 330 655 262 655 q 186 655 135 560 q 83 465 83 319 q 83 192 125 115 q 167 38 234 38 z m 202 -13 q 120 -13 72 59 q 24 131 24 257 q 24 343 46 426 q 67 508 107 573 q 145 635 192 668 q 240 701 293 701 q 374 701 422 627 q 470 552 470 426 q 470 353 454 282 q 438 212 408 153 q 368 73 314 30 q 261 -13 202 -13 z"},"F":{"x_min":0,"x_max":551,"ha":551,"o":"m 141 576 q 142 583 143 592 q 143 600 143 611 q 143 636 135 648 q 126 661 106 669 q 103 670 99 671 q 96 672 90 673 q 89 673 87 674 q 73 678 73 687 q 73 692 78 697 q 82 701 88 701 q 89 701 95 700 q 141 694 201 694 q 302 694 404 700 q 506 706 506 706 q 516 706 519 704 q 522 702 522 693 q 522 692 521 687 q 520 666 520 645 q 520 615 523 582 q 524 572 524 570 q 524 561 520 556 q 516 551 509 551 q 497 551 495 583 q 493 614 482 629 q 467 649 421 658 q 375 667 281 667 q 243 667 232 658 q 222 649 217 611 l 195 413 q 195 410 194 403 q 193 396 193 395 q 193 386 197 383 q 202 380 219 380 l 227 380 l 312 380 q 357 380 377 386 q 397 393 411 409 q 418 418 426 438 q 433 458 442 458 q 446 458 449 453 q 452 448 452 440 q 452 436 443 384 q 433 333 433 290 l 433 273 q 433 253 430 247 q 427 241 419 241 q 413 241 410 246 q 407 250 407 260 l 407 272 q 407 310 385 325 q 363 340 302 340 l 234 340 q 199 340 192 334 q 186 328 182 300 l 165 155 q 163 135 161 119 q 160 103 160 93 q 160 66 172 51 q 184 35 209 29 q 212 28 216 28 q 219 27 225 26 q 243 24 248 20 q 254 16 254 9 q 254 2 249 -1 q 245 -4 235 -4 q 229 -4 190 0 q 151 3 119 3 q 92 3 60 0 q 29 -3 26 -3 q 18 -3 15 0 q 12 3 12 10 q 12 16 16 19 q 20 22 33 26 q 34 26 36 27 q 48 30 55 34 q 69 42 77 58 q 84 73 88 111 z"},"`":{"x_min":0,"x_max":500,"ha":500,"o":"m 346 478 l 320 478 l 204 592 l 201 595 q 180 616 180 628 q 180 639 187 645 q 194 652 206 652 q 216 652 225 646 q 233 639 249 616 z"},"k":{"x_min":0,"x_max":442,"ha":442,"o":"m 25 33 l 112 647 q 113 654 113 662 q 114 669 114 680 q 114 694 108 698 q 103 703 87 703 q 81 703 69 703 q 56 702 51 702 q 45 702 42 705 q 39 707 39 712 q 39 726 83 729 q 89 730 92 730 q 129 733 166 741 q 177 743 179 743 q 185 743 187 740 q 190 737 190 731 q 190 722 184 691 q 178 660 175 639 l 116 208 l 179 249 q 212 270 240 300 q 268 331 287 367 q 292 376 299 394 q 312 429 336 429 q 352 429 361 422 q 370 414 370 401 q 370 375 339 342 q 308 309 226 250 l 306 111 q 319 87 329 78 q 338 68 347 68 q 365 68 385 97 q 405 126 410 126 q 414 126 416 122 q 419 118 419 112 q 419 81 385 38 q 351 -6 322 -6 q 308 -6 296 6 q 283 19 265 52 l 194 181 q 193 183 191 187 q 179 208 167 208 q 164 208 159 207 q 155 205 150 202 l 124 187 q 118 184 114 177 q 111 171 109 160 l 92 31 q 92 29 91 26 q 88 -3 45 -3 q 35 -3 28 0 q 22 4 22 9 q 22 12 23 20 q 24 28 25 33 z"},"u":{"x_min":0,"x_max":493,"ha":493,"o":"m 317 214 l 312 214 q 260 115 197 53 q 134 -9 91 -9 q 70 -9 59 6 q 47 21 47 49 q 47 61 50 84 q 52 107 57 133 l 87 293 q 91 315 93 324 q 94 333 94 339 q 94 351 91 357 q 87 364 80 364 q 57 364 41 332 q 25 300 17 300 q 12 300 9 304 q 5 309 5 315 q 5 322 15 344 q 25 365 39 385 q 55 408 73 421 q 92 433 111 433 q 136 433 148 418 q 159 403 159 369 q 159 353 157 334 q 155 315 152 296 l 119 109 q 116 94 115 86 q 114 78 114 73 q 114 61 120 55 q 125 49 137 49 q 169 49 230 129 q 291 210 335 322 q 350 358 360 399 q 369 433 399 433 q 412 433 418 430 q 424 427 424 420 q 424 418 421 406 q 420 399 419 394 l 380 220 q 371 176 365 138 q 359 99 359 86 q 359 72 365 63 q 372 54 382 54 q 405 54 427 85 q 450 115 458 115 q 462 115 465 112 q 468 108 468 102 q 468 93 455 75 q 443 57 422 35 q 400 13 378 2 q 357 -9 336 -9 q 314 -9 304 4 q 293 16 293 41 q 293 63 299 108 q 306 154 317 214 z"},"]":{"x_min":0,"x_max":370,"ha":370,"o":"m 290 694 l 194 -151 l 22 -151 l 25 -122 l 78 -122 q 112 -122 123 -114 q 133 -105 137 -65 l 213 607 q 213 610 214 615 q 215 629 215 636 q 215 654 205 660 q 194 666 161 666 l 115 666 l 119 694 z"},"U":{"x_min":0,"x_max":759,"ha":759,"o":"m 95 272 l 118 526 q 118 531 119 541 q 123 587 123 612 q 123 639 117 651 q 112 664 99 669 q 97 670 92 671 q 87 673 85 674 q 72 677 68 681 q 64 684 64 689 q 64 695 69 699 q 74 703 82 703 q 84 703 109 699 q 135 696 159 696 q 187 696 217 699 q 248 703 249 703 q 257 703 261 700 q 265 696 265 690 q 265 680 247 676 q 229 671 219 662 q 208 653 202 626 q 195 599 189 529 l 170 307 q 166 257 164 233 q 162 210 162 199 q 162 112 206 66 q 250 20 334 20 q 426 20 491 65 q 556 110 585 194 q 596 227 607 278 q 617 329 627 399 q 636 464 641 517 q 646 570 646 602 q 646 627 640 643 q 634 658 620 667 q 613 672 594 676 q 576 680 576 691 q 576 696 580 699 q 583 703 587 703 q 589 703 592 702 q 594 702 599 701 q 636 696 677 696 q 692 696 715 700 q 718 701 719 701 q 721 701 724 702 q 732 703 735 703 q 741 703 744 700 q 747 697 747 691 q 747 682 731 674 q 730 674 730 674 q 717 670 710 665 q 703 659 698 649 q 693 638 682 552 q 674 484 668 440 l 668 440 q 632 181 584 109 q 544 49 474 16 q 404 -18 319 -18 q 205 -18 147 31 q 90 81 90 180 q 90 201 91 224 q 92 248 95 272 z"},"o":{"x_min":0,"x_max":434,"ha":434,"o":"m 240 411 q 195 411 163 385 q 130 358 107 301 q 91 264 82 217 q 73 170 73 126 q 73 67 97 37 q 121 8 169 8 q 240 8 285 88 q 330 168 330 294 q 330 350 306 380 q 283 411 240 411 z m 9 157 q 9 271 76 352 q 144 433 238 433 q 312 433 353 388 q 394 343 394 262 q 394 148 327 67 q 259 -14 166 -14 q 92 -14 50 31 q 9 76 9 157 z"},"N":{"x_min":0,"x_max":767,"ha":767,"o":"m 527 195 q 533 186 543 170 q 568 130 577 130 q 581 130 585 145 q 589 160 594 194 l 630 431 q 638 483 642 529 q 646 575 646 602 l 646 617 q 646 644 641 653 q 636 663 623 671 q 617 675 610 677 q 604 679 595 680 q 582 682 578 686 q 574 689 574 695 q 574 700 580 704 q 585 708 593 708 q 595 708 604 707 q 635 703 664 703 q 701 703 739 707 q 747 708 748 708 q 756 708 760 704 q 764 701 764 694 q 764 688 760 685 q 756 682 745 680 q 745 680 744 680 q 719 673 709 661 q 702 651 694 620 q 687 589 678 525 l 641 262 q 618 101 606 47 q 594 -8 582 -8 q 571 -8 536 52 q 503 107 478 146 l 269 466 q 235 518 223 534 q 210 550 204 550 q 191 550 182 480 q 177 450 174 430 l 141 218 q 133 163 129 133 q 126 103 126 83 q 126 63 134 52 q 141 40 161 31 q 169 27 182 25 q 184 25 184 25 l 185 25 q 203 22 203 11 q 203 5 198 1 q 194 -3 186 -3 q 184 -3 176 -2 q 129 4 84 4 q 60 4 37 0 q 14 -3 13 -3 q 7 -3 2 2 q -3 7 -3 12 q -3 23 21 31 q 44 38 53 45 q 75 64 96 188 q 98 200 99 207 l 140 451 q 146 485 148 515 q 151 544 151 566 q 151 610 137 636 q 124 663 95 675 q 87 678 73 680 q 72 680 72 680 q 58 681 54 684 q 50 688 50 695 q 50 702 54 705 q 58 708 68 708 q 72 708 87 707 q 102 705 112 705 q 124 705 140 707 q 157 708 161 708 q 197 708 322 514 l 325 509 z"},"+":{"x_min":0,"x_max":833,"ha":833,"o":"m 393 596 l 441 596 l 441 322 l 709 322 l 709 274 l 441 274 l 441 0 l 393 0 l 393 274 l 124 274 l 124 322 l 393 322 z"},"G":{"x_min":0,"x_max":764,"ha":764,"o":"m 31 337 q 31 498 134 605 q 237 712 390 712 q 495 712 604 659 q 632 645 639 645 q 648 645 658 652 q 667 658 671 658 q 675 658 678 656 q 681 654 681 651 q 681 650 681 646 q 678 614 678 580 q 678 556 682 528 q 685 500 685 497 q 685 490 682 484 q 678 479 674 479 q 664 479 653 513 q 642 548 623 572 q 583 624 519 654 q 456 683 384 683 q 257 683 183 595 q 110 506 110 352 q 110 200 188 108 q 267 16 397 16 q 495 16 537 69 q 579 122 579 247 q 579 288 575 300 q 571 312 561 318 q 556 321 549 322 q 542 324 526 325 q 506 326 500 330 q 494 333 494 340 q 494 346 500 350 q 505 353 516 353 l 523 353 q 526 353 550 353 q 574 352 596 352 q 641 352 686 356 q 692 357 694 357 q 696 357 698 358 q 699 358 701 358 q 707 358 711 354 q 716 351 716 346 q 716 335 699 331 q 697 330 697 330 q 683 326 676 322 q 669 317 665 309 q 655 290 648 229 q 641 169 641 91 q 641 90 642 80 q 642 70 642 62 q 642 45 621 41 q 609 38 601 36 q 589 33 561 22 q 456 -17 375 -17 q 217 -17 124 78 q 31 174 31 337 z"},"q":{"x_min":0,"x_max":440,"ha":440,"o":"m 256 408 q 225 408 195 389 q 166 369 139 330 q 108 286 90 232 q 72 179 72 133 q 72 87 91 64 q 110 40 147 40 q 219 40 272 128 q 325 216 325 346 q 325 376 308 392 q 290 408 256 408 z m 298 128 q 257 59 209 24 q 162 -11 108 -11 q 59 -11 31 21 q 3 53 3 110 q 3 161 27 217 q 51 273 97 329 q 142 383 185 408 q 228 434 273 434 q 306 434 340 423 q 349 420 351 420 q 354 420 358 423 q 361 425 364 430 l 393 484 q 397 492 400 495 q 403 497 407 497 q 411 497 414 493 q 417 489 417 484 q 417 480 409 446 q 401 412 397 380 l 329 -109 q 329 -113 328 -119 q 328 -124 328 -137 q 328 -153 334 -161 q 340 -169 356 -174 q 358 -175 362 -175 q 366 -176 373 -176 q 387 -177 391 -180 q 395 -184 395 -190 q 395 -196 389 -199 q 384 -203 374 -203 q 370 -203 337 -201 q 305 -198 278 -198 q 253 -198 229 -201 q 204 -203 203 -203 q 195 -203 189 -199 q 184 -195 184 -190 q 184 -179 202 -177 q 215 -176 222 -174 q 241 -168 250 -159 q 258 -149 261 -128 z"},"d":{"x_min":0,"x_max":458,"ha":458,"o":"m 290 218 l 303 320 q 305 333 306 344 q 307 354 307 359 q 307 385 292 398 q 276 411 245 411 q 215 411 186 390 q 156 369 131 329 q 103 283 87 236 q 72 189 72 149 q 72 96 93 66 q 115 37 153 37 q 207 37 243 84 q 279 131 290 218 z m 282 99 q 248 43 207 15 q 167 -14 122 -14 q 70 -14 41 21 q 11 57 11 120 q 11 172 31 227 q 51 281 89 332 q 125 380 166 407 q 207 433 246 433 q 260 433 276 430 q 292 426 315 418 l 344 647 q 346 661 346 669 q 347 677 347 680 q 347 694 341 698 q 335 703 319 703 q 313 703 301 703 q 290 702 284 702 q 278 702 274 705 q 271 708 271 712 q 271 726 313 729 q 318 730 321 730 q 351 732 380 738 q 408 743 409 743 q 415 743 417 740 q 420 738 420 732 q 420 728 415 697 q 409 666 406 639 l 342 109 q 342 107 341 106 q 341 102 340 94 q 340 85 340 81 q 340 66 345 58 q 351 50 361 50 q 378 50 399 77 q 420 105 428 105 q 433 105 436 102 q 439 99 439 94 q 439 89 428 72 q 417 56 401 36 q 380 12 364 2 q 348 -9 333 -9 q 309 -9 296 16 q 282 41 282 86 z"},"1":{"x_min":0,"x_max":495,"ha":495,"o":"m 194 138 l 239 479 q 244 517 247 546 q 250 574 250 584 q 250 610 243 617 q 236 625 204 625 q 202 625 195 624 q 189 623 185 623 q 181 623 178 626 q 176 630 176 635 q 176 646 210 656 q 226 661 235 664 q 260 672 288 689 q 316 706 325 706 q 330 706 332 701 q 334 697 334 687 q 334 679 332 662 q 330 645 324 599 l 264 134 q 261 107 260 95 q 259 84 259 78 q 259 57 266 47 q 274 38 297 29 q 305 26 318 24 q 337 21 337 11 q 337 4 333 0 q 328 -3 319 -3 l 315 -3 q 313 -3 307 -2 q 262 5 216 5 q 188 5 159 1 q 130 -3 129 -3 q 120 -3 115 0 q 110 4 110 10 q 110 17 114 21 q 119 24 132 25 q 144 26 149 28 q 154 29 158 32 q 171 40 179 57 q 188 73 188 88 q 188 89 190 103 q 191 117 194 138 z"},"5":{"x_min":0,"x_max":495,"ha":495,"o":"m 153 650 q 159 672 166 680 q 173 687 191 687 q 192 687 222 686 q 252 685 281 685 q 329 685 352 687 q 376 689 385 694 q 394 699 407 719 q 421 739 430 739 q 435 739 437 735 q 439 730 439 722 q 439 714 430 689 q 421 665 407 640 q 398 623 384 617 q 370 612 315 612 q 287 612 251 614 q 215 616 207 616 q 187 616 178 605 q 170 594 164 566 l 151 506 q 150 502 149 498 q 149 495 149 491 q 149 486 170 484 q 173 484 175 484 q 210 482 236 478 q 261 473 285 463 q 346 439 376 393 q 407 348 407 281 q 407 160 312 68 q 217 -24 91 -24 q 55 -24 45 -19 q 35 -14 29 2 q 23 17 19 38 q 15 58 15 64 q 15 70 18 75 q 21 79 25 79 q 27 79 64 52 q 100 24 145 24 q 225 24 286 91 q 347 159 347 247 q 347 326 287 371 q 227 417 124 417 l 106 417 q 98 417 95 418 q 92 419 92 423 q 92 426 94 434 q 96 442 100 456 z"}}}
